<?xml version="1.0" encoding="UTF-8" standalone="no"?>
<!-- Created with Inkscape (http://www.inkscape.org/) -->

<svg
   width="800"
   height="800"
   viewBox="0 0 211.66666 211.66667"
   version="1.1"
   id="svg1"
   inkscape:version="1.4 (86a8ad7, 2024-10-11)"
   sodipodi:docname="favicon_r.svg"
   inkscape:export-filename="favicon.svg"
   inkscape:export-xdpi="96"
   inkscape:export-ydpi="96"
   xmlns:inkscape="http://www.inkscape.org/namespaces/inkscape"
   xmlns:sodipodi="http://sodipodi.sourceforge.net/DTD/sodipodi-0.dtd"
   xmlns="http://www.w3.org/2000/svg"
   xmlns:svg="http://www.w3.org/2000/svg">
  <sodipodi:namedview
     id="namedview1"
     pagecolor="#505050"
     bordercolor="#eeeeee"
     borderopacity="1"
     inkscape:showpageshadow="0"
     inkscape:pageopacity="0"
     inkscape:pagecheckerboard="0"
     inkscape:deskcolor="#505050"
     inkscape:document-units="mm"
     inkscape:zoom="0.70710678"
     inkscape:cx="292.0351"
     inkscape:cy="330.21887"
     inkscape:window-width="1920"
     inkscape:window-height="1009"
     inkscape:window-x="-8"
     inkscape:window-y="-8"
     inkscape:window-maximized="1"
     inkscape:current-layer="g58" />
  <defs
     id="defs1">
    <inkscape:path-effect
       effect="fillet_chamfer"
       id="path-effect27"
       is_visible="true"
       lpeversion="1"
       nodesatellites_param="F,0,0,1,0,0,0,1 @ F,0,0,1,0,0,0,1 @ F,0,0,1,0,0,0,1 @ F,0,0,1,0,0,0,1"
       radius="0"
       unit="px"
       method="auto"
       mode="F"
       chamfer_steps="1"
       flexible="false"
       use_knot_distance="true"
       apply_no_radius="true"
       apply_with_radius="true"
       only_selected="false"
       hide_knots="false" />
    <inkscape:path-effect
       effect="fillet_chamfer"
       id="path-effect26"
       is_visible="true"
       lpeversion="1"
       nodesatellites_param="F,0,0,1,0,0,0,1 @ F,0,0,1,0,0,0,1 @ F,0,0,1,0,0,0,1 @ F,0,0,1,0,0,0,1"
       radius="0"
       unit="px"
       method="auto"
       mode="F"
       chamfer_steps="1"
       flexible="false"
       use_knot_distance="true"
       apply_no_radius="true"
       apply_with_radius="true"
       only_selected="false"
       hide_knots="false" />
    <inkscape:path-effect
       effect="fillet_chamfer"
       id="path-effect25"
       is_visible="true"
       lpeversion="1"
       nodesatellites_param="F,0,0,1,0,0,0,1 @ F,0,1,1,0,0,0,1 @ F,0,0,1,0,2.8802075,0,1 @ F,0,0,1,0,0,0,1 @ F,0,0,1,0,0,0,1 @ F,0,0,1,0,0,0,1 @ F,0,0,1,0,0,0,1"
       radius="0"
       unit="px"
       method="auto"
       mode="F"
       chamfer_steps="1"
       flexible="false"
       use_knot_distance="true"
       apply_no_radius="true"
       apply_with_radius="true"
       only_selected="false"
       hide_knots="false" />
    <inkscape:path-effect
       effect="fillet_chamfer"
       id="path-effect24"
       is_visible="true"
       lpeversion="1"
       nodesatellites_param="F,0,0,1,0,0,0,1 @ F,0,0,1,0,0,0,1 @ F,0,0,1,0,0,0,1 @ F,0,0,1,0,0,0,1"
       radius="0"
       unit="px"
       method="auto"
       mode="F"
       chamfer_steps="1"
       flexible="false"
       use_knot_distance="true"
       apply_no_radius="true"
       apply_with_radius="true"
       only_selected="false"
       hide_knots="false" />
  </defs>
  <g
     inkscape:label="logo base_test"
     inkscape:groupmode="layer"
     id="layer1"
     transform="rotate(172.37628,105.99256,106.72862)"
     style="display:none">
    <path
       id="path1"
       style="display:none;fill:#1a1a1a;fill-rule:evenodd;stroke-width:0.362419"
       inkscape:label="circulo de fondo"
       d="M 184.3829,106.72862 A 78.390335,78.390335 0 0 1 105.99256,185.11896 78.390335,78.390335 0 0 1 27.602226,106.72862 78.390335,78.390335 0 0 1 105.99256,28.338287 78.390335,78.390335 0 0 1 184.3829,106.72862 Z" />
    <path
       id="path17"
       style="display:inline;fill:#e6e6e6;fill-rule:evenodd;stroke-width:0.337153"
       d="M 105.9925,33.803105 A 35.876945,36.557175 0 0 0 70.115617,70.360563 35.876945,36.557175 0 0 0 105.9925,106.9175 a 35.876945,36.557175 0 0 1 35.87688,36.55746 35.876945,36.557175 0 0 1 -28.13575,35.62522 72.925369,72.925369 0 0 0 65.18413,-72.37181 72.925369,72.925369 0 0 0 -68.36327,-72.626576 35.876945,36.557175 0 0 1 0.24857,0.04031 35.876945,36.557175 0 0 0 -0.39636,-0.05013 72.925369,72.925369 0 0 1 0.14779,0.0098 35.876945,36.557175 0 0 0 -0.43925,-0.04651 35.876945,36.557175 0 0 0 -1.45727,-0.140043 35.876945,36.557175 0 0 0 -0.61289,-0.04599 35.876945,36.557175 0 0 0 -2.05258,-0.06614 z m 6.33191,0.58446 a 35.876945,36.557175 0 0 1 0.50643,0.0894 35.876945,36.557175 0 0 0 -0.50643,-0.0894 z m 2.50527,0.54467 a 35.876945,36.557175 0 0 1 0.41858,0.118339 35.876945,36.557175 0 0 0 -0.41858,-0.118339 z m 1.97249,0.577742 a 35.876945,36.557175 0 0 1 0.64751,0.218075 35.876945,36.557175 0 0 0 -0.64751,-0.218075 z m 2.0066,0.716752 a 35.876945,36.557175 0 0 1 0.60565,0.238229 35.876945,36.557175 0 0 0 -0.60565,-0.238229 z m 2.31149,0.990638 a 35.876945,36.557175 0 0 1 0.17104,0.077 35.876945,36.557175 0 0 0 -0.17104,-0.077 z m 1.99522,1.024226 a 35.876945,36.557175 0 0 1 0.52969,0.305408 35.876945,36.557175 0 0 0 -0.52969,-0.305408 z m 1.79834,1.070219 a 35.876945,36.557175 0 0 1 0.57154,0.36897 35.876945,36.557175 0 0 0 -0.57154,-0.36897 z m 1.8247,1.236617 a 35.876945,36.557175 0 0 1 0.4625,0.331763 35.876945,36.557175 0 0 0 -0.4625,-0.331763 z m 2.07842,1.609204 a 35.876945,36.557175 0 0 1 0.2496,0.219625 35.876945,36.557175 0 0 0 -0.2496,-0.219625 z m 1.54151,1.379761 a 35.876945,36.557175 0 0 1 0.47904,0.465088 35.876945,36.557175 0 0 0 -0.47904,-0.465088 z m 1.49603,1.500684 a 35.876945,36.557175 0 0 1 0.46871,0.501778 35.876945,36.557175 0 0 0 -0.46871,-0.501778 z m 1.58182,1.789038 a 35.876945,36.557175 0 0 1 0.23771,0.280603 35.876945,36.557175 0 0 0 -0.23771,-0.280603 z m 1.48828,1.923397 a 35.876945,36.557175 0 0 1 0.32763,0.473873 35.876945,36.557175 0 0 0 -0.32763,-0.473873 z m 1.17151,1.738912 a 35.876945,36.557175 0 0 1 0.37155,0.597896 35.876945,36.557175 0 0 0 -0.37155,-0.597896 z m 1.11207,1.87327 a 35.876945,36.557175 0 0 1 0.30903,0.556555 35.876945,36.557175 0 0 0 -0.30903,-0.556555 z m 1.23249,2.403471 a 35.876945,36.557175 0 0 1 0.0935,0.214457 35.876945,36.557175 0 0 0 -0.0935,-0.214457 z m 0.81442,1.913062 a 35.876945,36.557175 0 0 1 0.23667,0.624251 35.876945,36.557175 0 0 0 -0.23667,-0.624251 z m 0.72863,2.017448 a 35.876945,36.557175 0 0 1 0.20723,0.639237 35.876945,36.557175 0 0 0 -0.20723,-0.639237 z m 0.66405,2.240173 a 35.876945,36.557175 0 0 1 0.11368,0.418579 35.876945,36.557175 0 0 0 -0.11368,-0.418579 z m 0.56017,2.455664 a 35.876945,36.557175 0 0 1 0.0863,0.505396 35.876945,36.557175 0 0 0 -0.0863,-0.505396 z m 0.33021,2.075842 a 35.876945,36.557175 0 0 1 0.0837,0.689881 35.876945,36.557175 0 0 0 -0.0837,-0.689881 z m 0.22066,2.165243 a 35.876945,36.557175 0 0 1 0.0465,0.645438 35.876945,36.557175 0 0 0 -0.0465,-0.645438 z m -0.39119,8.568469 a 35.876945,36.557175 0 0 1 -0.38654,1.811259 35.876945,36.557175 0 0 0 0.38654,-1.811259 z m -1.41645,5.727816 a 35.876945,36.557175 0 0 1 -0.72709,1.985925 35.876945,36.557175 0 0 0 0.72709,-1.985925 z m -2.34611,5.52421 a 35.876945,36.557175 0 0 1 -0.96325,1.797307 35.876945,36.557175 0 0 0 0.96325,-1.797307 z m -3.48041,5.460649 a 35.876945,36.557175 0 0 1 -0.82682,1.125513 35.876945,36.557175 0 0 0 0.82682,-1.125513 z m -4.89169,5.267379 a 35.876945,36.557175 0 0 1 -1.11001,0.84646 35.876945,36.557175 0 0 0 1.11001,-0.84646 z m -4.70204,3.409609 a 35.876945,36.557175 0 0 1 -1.7601,0.97927 35.876945,36.557175 0 0 0 1.7601,-0.97927 z m -5.23431,2.62982 a 35.876945,36.557175 0 0 1 -1.95285,0.74259 35.876945,36.557175 0 0 0 1.95285,-0.74259 z m -5.79034,1.79007 a 35.876945,36.557175 0 0 1 -1.78025,0.3948 35.876945,36.557175 0 0 0 1.78025,-0.3948 z"
       inkscape:label="Ying_b" />
    <path
       id="path21"
       style="display:inline;fill:#1a1a1a;fill-rule:evenodd;stroke-width:0.337153"
       d="M 82.224207,188.51708 A 35.876945,36.557175 0 0 0 118.10113,151.95963 35.876945,36.557175 0 0 0 82.224217,115.40269 35.876945,36.557175 0 0 1 46.347337,78.845195 35.876945,36.557175 0 0 1 74.483087,43.219973 72.925369,72.925369 0 0 0 9.2989564,115.59182 72.925369,72.925369 0 0 0 77.662227,188.2184 a 35.876945,36.557175 0 0 1 -0.24858,-0.0403 35.876945,36.557175 0 0 0 0.39637,0.0501 72.925369,72.925369 0 0 1 -0.14779,-0.01 35.876945,36.557175 0 0 0 0.43923,0.0465 35.876945,36.557175 0 0 0 1.45727,0.14005 35.876945,36.557175 0 0 0 0.6129,0.046 35.876945,36.557175 0 0 0 2.05258,0.0661 z m -6.3319,-0.58445 a 35.876945,36.557175 0 0 1 -0.50643,-0.0894 35.876945,36.557175 0 0 0 0.50643,0.0894 z m -2.50528,-0.54468 a 35.876945,36.557175 0 0 1 -0.4186,-0.11825 35.876945,36.557175 0 0 0 0.4186,0.11825 z m -1.97247,-0.57778 a 35.876945,36.557175 0 0 1 -0.64751,-0.21807 35.876945,36.557175 0 0 0 0.64751,0.21807 z m -2.00661,-0.71676 a 35.876945,36.557175 0 0 1 -0.60564,-0.23826 35.876945,36.557175 0 0 0 0.60564,0.23826 z m -2.31149,-0.99063 a 35.876945,36.557175 0 0 1 -0.17104,-0.077 35.876945,36.557175 0 0 0 0.17104,0.077 z m -1.99521,-1.02423 a 35.876945,36.557175 0 0 1 -0.5297,-0.30541 35.876945,36.557175 0 0 0 0.5297,0.30541 z m -1.79834,-1.07021 a 35.876945,36.557175 0 0 1 -0.57155,-0.36898 35.876945,36.557175 0 0 0 0.57155,0.36898 z m -1.82471,-1.23663 a 35.876945,36.557175 0 0 1 -0.4625,-0.33176 35.876945,36.557175 0 0 0 0.4625,0.33176 z m -2.07842,-1.6092 a 35.876945,36.557175 0 0 1 -0.24959,-0.21962 35.876945,36.557175 0 0 0 0.24959,0.21962 z m -1.54151,-1.37976 a 35.876945,36.557175 0 0 1 -0.47904,-0.46508 35.876945,36.557175 0 0 0 0.47904,0.46508 z m -1.49603,-1.50068 a 35.876945,36.557175 0 0 1 -0.46871,-0.50178 35.876945,36.557175 0 0 0 0.46871,0.50178 z m -1.58182,-1.78903 a 35.876945,36.557175 0 0 1 -0.23771,-0.28061 35.876945,36.557175 0 0 0 0.23771,0.28061 z m -1.48827,-1.9234 a 35.876945,36.557175 0 0 1 -0.32762,-0.47387 35.876945,36.557175 0 0 0 0.32762,0.47387 z m -1.17152,-1.73892 a 35.876945,36.557175 0 0 1 -0.37155,-0.5979 35.876945,36.557175 0 0 0 0.37155,0.5979 z m -1.11207,-1.87327 a 35.876945,36.557175 0 0 1 -0.30903,-0.55655 35.876945,36.557175 0 0 0 0.30903,0.55655 z m -1.23249,-2.40347 a 35.876945,36.557175 0 0 1 -0.0935,-0.21446 35.876945,36.557175 0 0 0 0.0935,0.21446 z m -0.8144,-1.91305 a 35.876945,36.557175 0 0 1 -0.23668,-0.62426 35.876945,36.557175 0 0 0 0.23668,0.62426 z m -0.72865,-2.01746 a 35.876945,36.557175 0 0 1 -0.20723,-0.63924 35.876945,36.557175 0 0 0 0.20723,0.63924 z m -0.66403,-2.24016 a 35.876945,36.557175 0 0 1 -0.11368,-0.41858 35.876945,36.557175 0 0 0 0.11368,0.41858 z m -0.56018,-2.45568 a 35.876945,36.557175 0 0 1 -0.0863,-0.50539 35.876945,36.557175 0 0 0 0.0863,0.50539 z m -0.3302,-2.07583 a 35.876945,36.557175 0 0 1 -0.0837,-0.68989 35.876945,36.557175 0 0 0 0.0837,0.68989 z m -0.22068,-2.16525 a 35.876945,36.557175 0 0 1 -0.0465,-0.64544 35.876945,36.557175 0 0 0 0.0465,0.64544 z m 0.3912,-8.56847 a 35.876945,36.557175 0 0 1 0.38653,-1.81126 35.876945,36.557175 0 0 0 -0.38653,1.81126 z m 1.41644,-5.72781 a 35.876945,36.557175 0 0 1 0.7271,-1.98593 35.876945,36.557175 0 0 0 -0.7271,1.98593 z m 2.34611,-5.52421 a 35.876945,36.557175 0 0 1 0.96325,-1.79731 35.876945,36.557175 0 0 0 -0.96325,1.79731 z m 3.48041,-5.46065 a 35.876945,36.557175 0 0 1 0.82682,-1.12552 35.876945,36.557175 0 0 0 -0.82682,1.12552 z m 4.89169,-5.26738 a 35.876945,36.557175 0 0 1 1.11001,-0.84645 35.876945,36.557175 0 0 0 -1.11001,0.84645 z m 4.70204,-3.4096 a 35.876945,36.557175 0 0 1 1.76011,-0.97929 35.876945,36.557175 0 0 0 -1.76011,0.97929 z m 5.23432,-2.62982 a 35.876945,36.557175 0 0 1 1.95285,-0.74261 35.876945,36.557175 0 0 0 -1.95285,0.74261 z m 5.79033,-1.79009 a 35.876945,36.557175 0 0 1 1.78026,-0.3948 35.876945,36.557175 0 0 0 -1.78026,0.3948 z"
       inkscape:label="Yang_b" />
    <path
       id="ellipse8"
       style="display:none;fill-rule:evenodd;stroke-width:0.0895953"
       inkscape:label="Ojos_n"
       d="M 125.19061,70.360428 A 19.19805,19.562046 0 0 1 105.99256,89.922474 19.19805,19.562046 0 0 1 86.794512,70.360428 19.19805,19.562046 0 0 1 105.99256,50.798382 19.19805,19.562046 0 0 1 125.19061,70.360428 Z" />
    <path
       id="ellipse14"
       style="display:none;fill:#e3e2db;fill-rule:evenodd;stroke-width:0.0895953"
       inkscape:label="Ojos_b"
       d="m 125.38415,142.63908 c 0.83355,10.77161 -8.7888,20.01978 -19.39159,20.01978 -10.602787,0 -19.198045,-8.75822 -19.198048,-19.56204 -2e-6,-10.80382 8.595257,-19.56205 19.198048,-19.56205 10.60279,0 18.58529,8.68486 19.39159,19.10431 z"
       sodipodi:nodetypes="sssss" />
    <path
       style="font-size:230.066px;font-family:'Century Gothic';-inkscape-font-specification:'Century Gothic';display:none;fill:#008000;fill-opacity:0.404432;fill-rule:evenodd;stroke-width:458.336;stroke-linecap:round;stroke-miterlimit:12.8;paint-order:stroke fill markers"
       d="m -66.204264,-239.84052 h 14.716136 v 12.24472 c 7.339345,1.34804 13.592766,3.74456 18.760264,7.18956 5.242389,3.445 10.260105,8.53761 15.053146,15.27782 l -12.132386,9.77331 c -5.766629,-8.91206 -12.993637,-14.30423 -21.681024,-16.17651 v 56.05612 c 19.621513,10.33499 31.828791,18.72282 36.621833,25.16347 6.1410843,8.23804 9.2116265,17.33733 9.2116265,27.29787 0,8.238037 -2.2841838,15.802054 -6.8525515,22.692051 -4.493477,6.815106 -10.597116,12.132387 -18.310917,15.951842 -5.017715,2.471412 -11.907712,4.268802 -20.669991,5.392171 v 35.161454 h -14.716136 v -35.161454 c -9.211627,-0.748913 -16.588417,-2.209292 -22.130371,-4.381139 -5.541955,-2.171847 -10.971573,-5.429618 -16.288855,-9.773311 -5.24239,-4.418585 -9.62353,-9.511192 -13.14342,-15.27782 l 12.02005,-9.09929 c 10.409889,13.779994 23.590755,21.45635 39.542596,23.029067 l 0.217177,-67.244261 c -9.376961,-2.59547 -10.818022,-4.6856 -13.963455,-6.78255 -6.365758,-4.3437 -11.870391,-14.71508 -13.186489,-21.05483 -1.192848,-5.74604 -2.491222,-10.62714 -1.549567,-17.49273 0.723627,-5.27596 0.118848,-4.85163 2.379065,-11.58937 2.207337,-6.5801 8.009514,-16.05097 13.776142,-19.64576 5.978977,-2.84137 7.061118,-6.08599 16.494573,-5.44169 z m 0.397249,35.76402 c 0.191025,-0.043 -0.708493,0.22494 -4.464243,1.79748 -3.444999,2.02207 -4.443237,3.51543 -6.465301,7.03532 -1.947173,3.44499 -3.793388,8.63041 -3.244175,12.76825 0.942746,7.10277 0.11284,4.29632 1.884151,9.89311 1.363441,4.18157 6.302853,9.92627 11.965039,11.33574 z m 14.318887,129.146563 c 9.061844,-1.273152 16.288852,-4.568368 21.681024,-9.885648 5.467063,-5.317281 8.200594,-11.271136 8.200594,-17.861565 0,-6.44065 -2.096956,-12.39451 -6.290867,-17.86157 -4.11902,-5.46707 -11.982604,-11.30859 -23.590751,-17.52456 z"
       id="text21"
       transform="matrix(-1.085282,0.25812569,-0.20741885,-0.87208657,0,0)"
       aria-label="$"
       sodipodi:nodetypes="cccccccccsccccccsccccccsssccccccscccccsccc" />
    <rect
       style="display:none;fill:#008000;fill-opacity:0.404432;fill-rule:evenodd;stroke-width:22.4896;stroke-linecap:round;stroke-miterlimit:12.8;paint-order:stroke fill markers"
       id="rect21"
       width="14.811501"
       height="21.970995"
       x="-46.574459"
       y="-67.299339"
       transform="rotate(150.04447)" />
    <rect
       style="display:none;fill:#008000;fill-opacity:0.404432;fill-rule:evenodd;stroke-width:22.4896;stroke-linecap:round;stroke-miterlimit:12.8;paint-order:stroke fill markers"
       id="rect21-7"
       width="14.811501"
       height="21.970995"
       x="-35.700542"
       y="-243.7442"
       transform="rotate(150.04447)" />
  </g>
  <g
     inkscape:label="logo base"
     inkscape:groupmode="layer"
     id="g21"
     style="display:none">
    <circle
       style="display:inline;fill:#1a1a1a;fill-rule:evenodd;stroke-width:0.362419"
       id="circle17"
       cx="105.99256"
       cy="106.72862"
       r="78.390335"
       inkscape:label="circulo de fondo"
       sodipodi:insensitive="true" />
    <path
       id="path18"
       style="display:inline;fill:#e6e6e6;fill-rule:evenodd;stroke-width:0.337153"
       d="M 105.9925,33.803105 A 35.876945,36.557175 0 0 0 70.115617,70.360563 35.876945,36.557175 0 0 0 105.9925,106.9175 a 35.876945,36.557175 0 0 1 35.87688,36.55746 35.876945,36.557175 0 0 1 -28.13575,35.62522 72.925369,72.925369 0 0 0 65.18413,-72.37181 72.925369,72.925369 0 0 0 -68.36327,-72.626576 35.876945,36.557175 0 0 1 0.24857,0.04031 35.876945,36.557175 0 0 0 -0.39636,-0.05013 72.925369,72.925369 0 0 1 0.14779,0.0098 35.876945,36.557175 0 0 0 -0.43925,-0.04651 35.876945,36.557175 0 0 0 -1.45727,-0.140043 35.876945,36.557175 0 0 0 -0.61289,-0.04599 35.876945,36.557175 0 0 0 -2.05258,-0.06614 z m 6.33191,0.58446 a 35.876945,36.557175 0 0 1 0.50643,0.0894 35.876945,36.557175 0 0 0 -0.50643,-0.0894 z m 2.50527,0.54467 a 35.876945,36.557175 0 0 1 0.41858,0.118339 35.876945,36.557175 0 0 0 -0.41858,-0.118339 z m 1.97249,0.577742 a 35.876945,36.557175 0 0 1 0.64751,0.218075 35.876945,36.557175 0 0 0 -0.64751,-0.218075 z m 2.0066,0.716752 a 35.876945,36.557175 0 0 1 0.60565,0.238229 35.876945,36.557175 0 0 0 -0.60565,-0.238229 z m 2.31149,0.990638 a 35.876945,36.557175 0 0 1 0.17104,0.077 35.876945,36.557175 0 0 0 -0.17104,-0.077 z m 1.99522,1.024226 a 35.876945,36.557175 0 0 1 0.52969,0.305408 35.876945,36.557175 0 0 0 -0.52969,-0.305408 z m 1.79834,1.070219 a 35.876945,36.557175 0 0 1 0.57154,0.36897 35.876945,36.557175 0 0 0 -0.57154,-0.36897 z m 1.8247,1.236617 a 35.876945,36.557175 0 0 1 0.4625,0.331763 35.876945,36.557175 0 0 0 -0.4625,-0.331763 z m 2.07842,1.609204 a 35.876945,36.557175 0 0 1 0.2496,0.219625 35.876945,36.557175 0 0 0 -0.2496,-0.219625 z m 1.54151,1.379761 a 35.876945,36.557175 0 0 1 0.47904,0.465088 35.876945,36.557175 0 0 0 -0.47904,-0.465088 z m 1.49603,1.500684 a 35.876945,36.557175 0 0 1 0.46871,0.501778 35.876945,36.557175 0 0 0 -0.46871,-0.501778 z m 1.58182,1.789038 a 35.876945,36.557175 0 0 1 0.23771,0.280603 35.876945,36.557175 0 0 0 -0.23771,-0.280603 z m 1.48828,1.923397 a 35.876945,36.557175 0 0 1 0.32763,0.473873 35.876945,36.557175 0 0 0 -0.32763,-0.473873 z m 1.17151,1.738912 a 35.876945,36.557175 0 0 1 0.37155,0.597896 35.876945,36.557175 0 0 0 -0.37155,-0.597896 z m 1.11207,1.87327 a 35.876945,36.557175 0 0 1 0.30903,0.556555 35.876945,36.557175 0 0 0 -0.30903,-0.556555 z m 1.23249,2.403471 a 35.876945,36.557175 0 0 1 0.0935,0.214457 35.876945,36.557175 0 0 0 -0.0935,-0.214457 z m 0.81442,1.913062 a 35.876945,36.557175 0 0 1 0.23667,0.624251 35.876945,36.557175 0 0 0 -0.23667,-0.624251 z m 0.72863,2.017448 a 35.876945,36.557175 0 0 1 0.20723,0.639237 35.876945,36.557175 0 0 0 -0.20723,-0.639237 z m 0.66405,2.240173 a 35.876945,36.557175 0 0 1 0.11368,0.418579 35.876945,36.557175 0 0 0 -0.11368,-0.418579 z m 0.56017,2.455664 a 35.876945,36.557175 0 0 1 0.0863,0.505396 35.876945,36.557175 0 0 0 -0.0863,-0.505396 z m 0.33021,2.075842 a 35.876945,36.557175 0 0 1 0.0837,0.689881 35.876945,36.557175 0 0 0 -0.0837,-0.689881 z m 0.22066,2.165243 a 35.876945,36.557175 0 0 1 0.0465,0.645438 35.876945,36.557175 0 0 0 -0.0465,-0.645438 z m -0.39119,8.568469 a 35.876945,36.557175 0 0 1 -0.38654,1.811259 35.876945,36.557175 0 0 0 0.38654,-1.811259 z m -1.41645,5.727816 a 35.876945,36.557175 0 0 1 -0.72709,1.985925 35.876945,36.557175 0 0 0 0.72709,-1.985925 z m -2.34611,5.52421 a 35.876945,36.557175 0 0 1 -0.96325,1.797307 35.876945,36.557175 0 0 0 0.96325,-1.797307 z m -3.48041,5.460649 a 35.876945,36.557175 0 0 1 -0.82682,1.125513 35.876945,36.557175 0 0 0 0.82682,-1.125513 z m -4.89169,5.267379 a 35.876945,36.557175 0 0 1 -1.11001,0.84646 35.876945,36.557175 0 0 0 1.11001,-0.84646 z m -4.70204,3.409609 a 35.876945,36.557175 0 0 1 -1.7601,0.97927 35.876945,36.557175 0 0 0 1.7601,-0.97927 z m -5.23431,2.62982 a 35.876945,36.557175 0 0 1 -1.95285,0.74259 35.876945,36.557175 0 0 0 1.95285,-0.74259 z m -5.79034,1.79007 a 35.876945,36.557175 0 0 1 -1.78025,0.3948 35.876945,36.557175 0 0 0 1.78025,-0.3948 z"
       inkscape:label="Ying_b" />
    <path
       id="path19"
       style="display:none;fill:#000000;fill-rule:evenodd;stroke-width:0.337153"
       d="m 105.9925,33.803105 a 72.925369,72.925369 0 0 0 -72.925268,72.925265 72.925369,72.925369 0 0 0 72.925268,72.92578 35.876945,36.557175 0 0 0 35.87688,-36.55746 35.876945,36.557175 0 0 0 -33.20004,-36.4479 35.876945,36.557175 0 0 1 -2.67684,0.26871 35.876945,36.557175 0 0 1 -1.88258,-0.18913 A 35.876945,36.557175 0 0 1 70.115617,70.360563 35.876945,36.557175 0 0 1 105.9925,33.803105 Z m -7.381465,73.695755 a 35.876945,36.557175 0 0 0 -1.69292,0.45734 35.876945,36.557175 0 0 1 1.69292,-0.45734 z m -5.353678,1.63091 a 35.876945,36.557175 0 0 0 -1.85105,0.79014 35.876945,36.557175 0 0 1 1.85105,-0.79014 z m -5.142322,2.50734 a 35.876945,36.557175 0 0 0 -1.664498,1.00356 35.876945,36.557175 0 0 1 1.664498,-1.00356 z m -5.053438,3.58221 a 35.876945,36.557175 0 0 0 -1.045415,0.8475 35.876945,36.557175 0 0 1 1.045415,-0.8475 z m -4.865853,4.9351 a 35.876945,36.557175 0 0 0 -0.787549,1.11621 35.876945,36.557175 0 0 1 0.787549,-1.11621 z m -3.143478,4.68034 a 35.876945,36.557175 0 0 0 -0.903304,1.74356 35.876945,36.557175 0 0 1 0.903304,-1.74356 z m -2.427758,5.17953 a 35.876945,36.557175 0 0 0 -0.682646,1.91823 35.876945,36.557175 0 0 1 0.682646,-1.91823 z m -1.655713,5.70249 a 35.876945,36.557175 0 0 0 -0.365869,1.74615 35.876945,36.557175 0 0 1 0.365869,-1.74615 z m -0.3514,13.22142 a 35.876945,36.557175 0 0 0 0.386023,1.81022 35.876945,36.557175 0 0 1 -0.386023,-1.81022 z m 1.416968,5.72988 a 35.876945,36.557175 0 0 0 0.725537,1.98179 35.876945,36.557175 0 0 1 -0.725537,-1.98179 z m 2.34611,5.52421 a 35.876945,36.557175 0 0 0 0.962732,1.79576 35.876945,36.557175 0 0 1 -0.962732,-1.79576 z m 3.472656,5.44876 a 35.876945,36.557175 0 0 0 0.835608,1.13792 35.876945,36.557175 0 0 1 -0.835608,-1.13792 z m 4.900476,5.27927 a 35.876945,36.557175 0 0 0 1.100708,0.83922 35.876945,36.557175 0 0 1 -1.100708,-0.83922 z m 4.702039,3.40909 a 35.876945,36.557175 0 0 0 1.756998,0.9772 35.876945,36.557175 0 0 1 -1.756998,-0.9772 z m 5.232755,2.62878 a 35.876945,36.557175 0 0 0 1.952853,0.74259 35.876945,36.557175 0 0 1 -1.952853,-0.74259 z m 5.790344,1.79007 a 35.876945,36.557175 0 0 0 1.780257,0.39481 35.876945,36.557175 0 0 1 -1.780257,-0.39481 z"
       inkscape:label="Yang_n" />
    <g
       id="g20"
       inkscape:label="Ojos"
       style="display:inline"
       sodipodi:insensitive="true">
      <ellipse
         style="fill:#000000;fill-rule:evenodd;stroke-width:0.0895953"
         id="ellipse19"
         cx="105.99256"
         cy="70.360428"
         rx="19.19805"
         ry="19.562046"
         inkscape:label="Ojos_n" />
      <ellipse
         style="fill:#e3e2db;fill-rule:evenodd;stroke-width:0.0895953"
         id="ellipse20"
         cx="105.99256"
         cy="143.09682"
         rx="19.19805"
         ry="19.562046"
         inkscape:label="Ojos_b" />
    </g>
  </g>
  <g
     inkscape:groupmode="layer"
     id="layer3"
     inkscape:label="test1"
     transform="matrix(0.90985017,0,0,0.90985017,9.4934366,17.545877)"
     style="display:inline">
    <path
       id="path47"
       style="fill:#468966;fill-opacity:1;fill-rule:evenodd;stroke-width:0.36615"
       d="m 38.885864,-6.1223054 a 46.501085,46.501085 0 0 1 4.481823,40.6078934 87.807003,87.807003 0 0 1 27.041448,-18.369737 44.017275,43.198232 73.045922 0 1 0.0028,-0.0017 44.017275,43.198232 73.045922 0 1 2.730214,-1.39095 46.501085,46.501085 0 0 1 -34.256325,-20.8455024 z" />
    <path
       id="path48"
       style="display:inline;fill:#468966;fill-opacity:1;fill-rule:evenodd;stroke-width:0.36615"
       d="m 183.17273,135.25846 a 46.501085,46.501085 0 0 1 -0.006,0.004 87.807003,87.807003 0 0 1 -0.001,0.002 46.501085,46.501085 0 0 1 0.007,-0.005 z m -19.98993,26.23107 a 87.807003,87.807003 0 0 1 -24.25113,15.45959 44.017275,43.198232 73.045922 0 1 -2.08421,1.06175 46.501085,46.501085 0 0 1 31.01034,20.87481 46.501085,46.501085 0 0 1 -4.675,-37.39615 z" />
    <path
       id="path22"
       style="display:inline;fill:#ffb03b;fill-opacity:1;fill-rule:evenodd;stroke-width:0.384296"
       d="M 130.18713,176.89304 A 41.668798,40.893454 73.045922 0 0 157.15232,125.1102 41.668798,40.893454 73.045922 0 0 105.88545,97.17735 41.668798,40.893454 73.045922 0 1 54.618417,69.243932 41.668798,40.893454 73.045922 0 1 73.453399,21.050474 83.12219,83.12219 0 0 0 26.438834,121.62238 a 83.12219,83.12219 0 0 0 98.675146,56.46132 41.668798,40.893454 73.045922 0 1 -0.28442,0.0386 41.668798,40.893454 73.045922 0 0 0.44886,-0.0768 83.12219,83.12219 0 0 1 -0.16438,0.0385 41.668798,40.893454 73.045922 0 0 0.49436,-0.0953 41.668798,40.893454 73.045922 0 0 1.63538,-0.33172 41.668798,40.893454 73.045922 0 0 0.68352,-0.15354 41.668798,40.893454 73.045922 0 0 2.25988,-0.61013 z m -7.09785,1.46736 a 41.668798,40.893454 73.045922 0 1 -0.58187,0.0709 41.668798,40.893454 73.045922 0 0 0.58187,-0.0709 z m -2.9125,0.23886 a 41.668798,40.893454 73.045922 0 1 -0.49571,0.0101 41.668798,40.893454 73.045922 0 0 0.49571,-0.0101 z m -2.34261,0.0257 a 41.668798,40.893454 73.045922 0 1 -0.77846,-0.0226 41.668798,40.893454 73.045922 0 0 0.77846,0.0226 z m -2.42601,-0.11452 a 41.668798,40.893454 73.045922 0 1 -0.73951,-0.0584 41.668798,40.893454 73.045922 0 0 0.73951,0.0584 z m -2.84946,-0.31179 a 41.668798,40.893454 73.045922 0 1 -0.21206,-0.0271 41.668798,40.893454 73.045922 0 0 0.21206,0.0271 z m -2.51578,-0.45352 a 41.668798,40.893454 73.045922 0 1 -0.67903,-0.15693 41.668798,40.893454 73.045922 0 0 0.67903,0.15693 z m -2.31643,-0.56913 a 41.668798,40.893454 73.045922 0 1 -0.74578,-0.2123 41.668798,40.893454 73.045922 0 0 0.74578,0.2123 z m -2.40048,-0.74177 a 41.668798,40.893454 73.045922 0 1 -0.61452,-0.20799 41.668798,40.893454 73.045922 0 0 0.61452,0.20799 z m -2.80094,-1.06367 a 41.668798,40.893454 73.045922 0 1 -0.34513,-0.15649 41.668798,40.893454 73.045922 0 0 0.34513,0.15649 z m -2.13929,-0.99197 a 41.668798,40.893454 73.045922 0 1 -0.676872,-0.34785 41.668798,40.893454 73.045922 0 0 0.676872,0.34785 z m -2.129896,-1.13893 a 41.668798,40.893454 73.045922 0 1 -0.67781,-0.3913 41.668798,40.893454 73.045922 0 0 0.67781,0.3913 z m -2.319273,-1.4248 a 41.668798,40.893454 73.045922 0 1 -0.352439,-0.22692 41.668798,40.893454 73.045922 0 0 0.352439,0.22692 z m -2.26195,-1.60238 a 41.668798,40.893454 73.045922 0 1 -0.514717,-0.40776 41.668798,40.893454 73.045922 0 0 0.514717,0.40776 z m -1.855262,-1.50653 a 41.668798,40.893454 73.045922 0 1 -0.603823,-0.52839 41.668798,40.893454 73.045922 0 0 0.603823,0.52839 z m -1.835111,-1.67277 a 41.668798,40.893454 73.045922 0 1 -0.52192,-0.5041 41.668798,40.893454 73.045922 0 0 0.52192,0.5041 z m -2.142633,-2.21083 a 41.668798,40.893454 73.045922 0 1 -0.173219,-0.20274 41.668798,40.893454 73.045922 0 0 0.173219,0.20274 z m -1.523814,-1.81509 a 41.668798,40.893454 73.045922 0 1 -0.465528,-0.60194 41.668798,40.893454 73.045922 0 0 0.465528,0.60194 z m -1.464974,-1.95742 a 41.668798,40.893454 73.045922 0 1 -0.438376,-0.62809 41.668798,40.893454 73.045922 0 0 0.438376,0.62809 z m -1.468593,-2.22171 a 41.668798,40.893454 73.045922 0 1 -0.263068,-0.41859 41.668798,40.893454 73.045922 0 0 0.263068,0.41859 z m -1.426957,-2.49119 a 41.668798,40.893454 73.045922 0 1 -0.262072,-0.52234 41.668798,40.893454 73.045922 0 0 0.262072,0.52234 z m -1.049992,-2.15351 a 41.668798,40.893454 73.045922 0 1 -0.320557,-0.72434 41.668798,40.893454 73.045922 0 0 0.320557,0.72434 z m -0.960259,-2.28738 a 41.668798,40.893454 73.045922 0 1 -0.265234,-0.68827 41.668798,40.893454 73.045922 0 0 0.265234,0.68827 z m -2.42147,-9.47212 a 41.668798,40.893454 73.045922 0 1 -0.180588,-2.10328 41.668798,40.893454 73.045922 0 0 0.180588,2.10328 z m -0.359469,-6.71577 a 41.668798,40.893454 73.045922 0 1 0.132654,-2.4069 41.668798,40.893454 73.045922 0 0 -0.132654,2.4069 z m 0.7218,-6.80278 a 41.668798,40.893454 73.045922 0 1 0.452836,-2.27974 41.668798,40.893454 73.045922 0 0 -0.452836,2.27974 z m 1.979645,-7.11048 a 41.668798,40.893454 73.045922 0 1 0.527375,-1.50195 41.668798,40.893454 73.045922 0 0 -0.527375,1.50195 z m 3.582577,-7.36886 a 41.668798,40.893454 73.045922 0 1 0.928888,-1.29182 41.668798,40.893454 73.045922 0 0 -0.928888,1.29182 z m 3.993292,-5.28031 a 41.668798,40.893454 73.045922 0 1 1.59353,-1.6527 41.668798,40.893454 73.045922 0 0 -1.59353,1.6527 z m 4.832804,-4.60703 a 41.668798,40.893454 73.045922 0 1 1.882347,-1.45873 41.668798,40.893454 73.045922 0 0 -1.882347,1.45873 z m 5.71814,-3.8763 a 41.668798,40.893454 73.045922 0 1 1.809759,-1.022163 41.668798,40.893454 73.045922 0 0 -1.809759,1.022163 z"
       inkscape:label="Ying_w" />
    <path
       id="path23"
       style="display:inline;fill:#468966;fill-opacity:1;fill-rule:evenodd;stroke-width:0.384296"
       d="M 81.58377,17.461656 A 41.668798,40.893454 73.045922 0 0 54.61856,69.244504 41.668798,40.893454 73.045922 0 0 105.88545,97.17735 41.668798,40.893454 73.045922 0 1 157.1525,125.1108 41.668798,40.893454 73.045922 0 1 138.31753,173.30425 83.12219,83.12219 0 0 0 185.33206,72.73232 83.12219,83.12219 0 0 0 86.656921,16.270994 a 41.668798,40.893454 73.045922 0 1 0.284403,-0.03872 41.668798,40.893454 73.045922 0 0 -0.44881,0.07708 83.12219,83.12219 0 0 1 0.164457,-0.03822 41.668798,40.893454 73.045922 0 0 -0.494339,0.0953 41.668798,40.893454 73.045922 0 0 -1.635391,0.331666 41.668798,40.893454 73.045922 0 0 -0.683533,0.153565 41.668798,40.893454 73.045922 0 0 -2.25987,0.610163 z m 7.097858,-1.467377 a 41.668798,40.893454 73.045922 0 1 0.581868,-0.07085 41.668798,40.893454 73.045922 0 0 -0.581868,0.07085 z m 2.912507,-0.238841 a 41.668798,40.893454 73.045922 0 1 0.495701,-0.01021 41.668798,40.893454 73.045922 0 0 -0.495701,0.01021 z m 2.3426,-0.02566 a 41.668798,40.893454 73.045922 0 1 0.778451,0.02254 41.668798,40.893454 73.045922 0 0 -0.778451,-0.02254 z m 2.426023,0.114519 a 41.668798,40.893454 73.045922 0 1 0.739512,0.05847 41.668798,40.893454 73.045922 0 0 -0.739512,-0.05847 z m 2.849448,0.311781 a 41.668798,40.893454 73.045922 0 1 0.212079,0.0271 41.668798,40.893454 73.045922 0 0 -0.212079,-0.0271 z m 2.515784,0.453542 a 41.668798,40.893454 73.045922 0 1 0.67904,0.156921 41.668798,40.893454 73.045922 0 0 -0.67904,-0.156921 z m 2.31642,0.569103 a 41.668798,40.893454 73.045922 0 1 0.74581,0.212321 41.668798,40.893454 73.045922 0 0 -0.74581,-0.212321 z m 2.4005,0.741783 a 41.668798,40.893454 73.045922 0 1 0.61452,0.207989 41.668798,40.893454 73.045922 0 0 -0.61452,-0.207989 z m 2.80093,1.06367 a 41.668798,40.893454 73.045922 0 1 0.34512,0.15649 41.668798,40.893454 73.045922 0 0 -0.34512,-0.15649 z m 2.13929,0.991969 a 41.668798,40.893454 73.045922 0 1 0.67688,0.347846 41.668798,40.893454 73.045922 0 0 -0.67688,-0.347846 z m 2.1299,1.138925 a 41.668798,40.893454 73.045922 0 1 0.67781,0.391292 41.668798,40.893454 73.045922 0 0 -0.67781,-0.391292 z m 2.31928,1.424791 a 41.668798,40.893454 73.045922 0 1 0.35244,0.226934 41.668798,40.893454 73.045922 0 0 -0.35244,-0.226934 z m 2.26193,1.602391 a 41.668798,40.893454 73.045922 0 1 0.51471,0.407759 41.668798,40.893454 73.045922 0 0 -0.51471,-0.407759 z m 1.85528,1.506534 a 41.668798,40.893454 73.045922 0 1 0.60382,0.528386 41.668798,40.893454 73.045922 0 0 -0.60382,-0.528386 z m 1.83511,1.67277 a 41.668798,40.893454 73.045922 0 1 0.52192,0.504084 41.668798,40.893454 73.045922 0 0 -0.52192,-0.504084 z m 2.14263,2.210822 a 41.668798,40.893454 73.045922 0 1 0.17325,0.202723 41.668798,40.893454 73.045922 0 0 -0.17325,-0.202723 z m 1.52378,1.815085 a 41.668798,40.893454 73.045922 0 1 0.46555,0.601947 41.668798,40.893454 73.045922 0 0 -0.46555,-0.601947 z m 1.465,1.957425 a 41.668798,40.893454 73.045922 0 1 0.43879,0.627814 41.668798,40.893454 73.045922 0 0 -0.43879,-0.627814 z m 1.46857,2.221707 a 41.668798,40.893454 73.045922 0 1 0.26303,0.418615 41.668798,40.893454 73.045922 0 0 -0.26303,-0.418615 z m 1.42697,2.491204 a 41.668798,40.893454 73.045922 0 1 0.2621,0.522317 41.668798,40.893454 73.045922 0 0 -0.2621,-0.522317 z m 1.04998,2.153499 a 41.668798,40.893454 73.045922 0 1 0.32056,0.724356 41.668798,40.893454 73.045922 0 0 -0.32056,-0.724356 z m 0.96029,2.287393 a 41.668798,40.893454 73.045922 0 1 0.26523,0.688259 41.668798,40.893454 73.045922 0 0 -0.26523,-0.688259 z m 2.42145,9.472124 a 41.668798,40.893454 73.045922 0 1 0.1806,2.103266 41.668798,40.893454 73.045922 0 0 -0.1806,-2.103266 z m 0.35948,6.715752 a 41.668798,40.893454 73.045922 0 1 -0.13266,2.406903 41.668798,40.893454 73.045922 0 0 0.13266,-2.406903 z m -0.72179,6.802768 a 41.668798,40.893454 73.045922 0 1 -0.45284,2.279749 41.668798,40.893454 73.045922 0 0 0.45284,-2.279749 z m -1.97965,7.110493 a 41.668798,40.893454 73.045922 0 1 -0.52738,1.501966 41.668798,40.893454 73.045922 0 0 0.52738,-1.501966 z m -3.58258,7.368859 a 41.668798,40.893454 73.045922 0 1 -0.92889,1.291815 41.668798,40.893454 73.045922 0 0 0.92889,-1.291815 z m -3.9933,5.280297 a 41.668798,40.893454 73.045922 0 1 -1.59353,1.652734 41.668798,40.893454 73.045922 0 0 1.59353,-1.652734 z m -4.83282,4.607041 a 41.668798,40.893454 73.045922 0 1 -1.88233,1.458738 41.668798,40.893454 73.045922 0 0 1.88233,-1.458738 z m -5.71813,3.876292 a 41.668798,40.893454 73.045922 0 1 -1.80976,1.022169 41.668798,40.893454 73.045922 0 0 1.80976,-1.022169 z"
       inkscape:label="Yang_b" />
    <path
       id="path51"
       style="display:inline;fill:#468966;fill-opacity:1;fill-rule:evenodd;stroke-width:0.0895953"
       inkscape:label="Ojos_n"
       d="M 125.19061,70.360428 A 19.19805,19.562046 0 0 1 105.99256,89.922474 19.19805,19.562046 0 0 1 86.794512,70.360428 19.19805,19.562046 0 0 1 105.99256,50.798382 19.19805,19.562046 0 0 1 125.19061,70.360428 Z"
       transform="matrix(-1.089367,0.14581163,-0.14581163,-1.089367,237.08752,198.83084)" />
    <path
       id="path52"
       style="display:inline;fill:#ffb03b;fill-opacity:1;fill-rule:evenodd;stroke-width:0.0895953"
       inkscape:label="Ojos_b"
       d="m 125.38415,142.63908 c 0.83355,10.77161 -8.7888,20.01978 -19.39159,20.01978 -10.602787,0 -19.198045,-8.75822 -19.198048,-19.56204 -2e-6,-10.80382 8.595257,-19.56205 19.198048,-19.56205 10.60279,0 18.58529,8.68486 19.39159,19.10431 z"
       sodipodi:nodetypes="sssss"
       transform="matrix(-1.089367,0.14581163,-0.14581163,-1.089367,237.08752,198.83084)" />
  </g>
  <g
     inkscape:groupmode="layer"
     id="g58"
     inkscape:label="test2"
     transform="matrix(0.90985017,0,0,0.90985017,9.4934366,17.545877)"
     style="display:none">
    <g
       id="g59"
       style="fill:#468966;fill-opacity:1">
      <path
         id="path56"
         style="display:inline;fill:#468966;fill-opacity:1;fill-rule:evenodd;stroke-width:0.384296"
         d="M 81.58377,17.461656 A 41.668798,40.893454 73.045922 0 0 54.61856,69.244504 41.668798,40.893454 73.045922 0 0 105.88545,97.17735 41.668798,40.893454 73.045922 0 1 157.1525,125.1108 41.668798,40.893454 73.045922 0 1 138.31753,173.30425 83.12219,83.12219 0 0 0 185.33206,72.73232 83.12219,83.12219 0 0 0 86.656921,16.270994 a 41.668798,40.893454 73.045922 0 1 0.284403,-0.03872 41.668798,40.893454 73.045922 0 0 -0.44881,0.07708 83.12219,83.12219 0 0 1 0.164457,-0.03822 41.668798,40.893454 73.045922 0 0 -0.494339,0.0953 41.668798,40.893454 73.045922 0 0 -1.635391,0.331666 41.668798,40.893454 73.045922 0 0 -0.683533,0.153565 41.668798,40.893454 73.045922 0 0 -2.25987,0.610163 z m 7.097858,-1.467377 a 41.668798,40.893454 73.045922 0 1 0.581868,-0.07085 41.668798,40.893454 73.045922 0 0 -0.581868,0.07085 z m 2.912507,-0.238841 a 41.668798,40.893454 73.045922 0 1 0.495701,-0.01021 41.668798,40.893454 73.045922 0 0 -0.495701,0.01021 z m 2.3426,-0.02566 a 41.668798,40.893454 73.045922 0 1 0.778451,0.02254 41.668798,40.893454 73.045922 0 0 -0.778451,-0.02254 z m 2.426023,0.114519 a 41.668798,40.893454 73.045922 0 1 0.739512,0.05847 41.668798,40.893454 73.045922 0 0 -0.739512,-0.05847 z m 2.849448,0.311781 a 41.668798,40.893454 73.045922 0 1 0.212079,0.0271 41.668798,40.893454 73.045922 0 0 -0.212079,-0.0271 z m 2.515784,0.453542 a 41.668798,40.893454 73.045922 0 1 0.67904,0.156921 41.668798,40.893454 73.045922 0 0 -0.67904,-0.156921 z m 2.31642,0.569103 a 41.668798,40.893454 73.045922 0 1 0.74581,0.212321 41.668798,40.893454 73.045922 0 0 -0.74581,-0.212321 z m 2.4005,0.741783 a 41.668798,40.893454 73.045922 0 1 0.61452,0.207989 41.668798,40.893454 73.045922 0 0 -0.61452,-0.207989 z m 2.80093,1.06367 a 41.668798,40.893454 73.045922 0 1 0.34512,0.15649 41.668798,40.893454 73.045922 0 0 -0.34512,-0.15649 z m 2.13929,0.991969 a 41.668798,40.893454 73.045922 0 1 0.67688,0.347846 41.668798,40.893454 73.045922 0 0 -0.67688,-0.347846 z m 2.1299,1.138925 a 41.668798,40.893454 73.045922 0 1 0.67781,0.391292 41.668798,40.893454 73.045922 0 0 -0.67781,-0.391292 z m 2.31928,1.424791 a 41.668798,40.893454 73.045922 0 1 0.35244,0.226934 41.668798,40.893454 73.045922 0 0 -0.35244,-0.226934 z m 2.26193,1.602391 a 41.668798,40.893454 73.045922 0 1 0.51471,0.407759 41.668798,40.893454 73.045922 0 0 -0.51471,-0.407759 z m 1.85528,1.506534 a 41.668798,40.893454 73.045922 0 1 0.60382,0.528386 41.668798,40.893454 73.045922 0 0 -0.60382,-0.528386 z m 1.83511,1.67277 a 41.668798,40.893454 73.045922 0 1 0.52192,0.504084 41.668798,40.893454 73.045922 0 0 -0.52192,-0.504084 z m 2.14263,2.210822 a 41.668798,40.893454 73.045922 0 1 0.17325,0.202723 41.668798,40.893454 73.045922 0 0 -0.17325,-0.202723 z m 1.52378,1.815085 a 41.668798,40.893454 73.045922 0 1 0.46555,0.601947 41.668798,40.893454 73.045922 0 0 -0.46555,-0.601947 z m 1.465,1.957425 a 41.668798,40.893454 73.045922 0 1 0.43879,0.627814 41.668798,40.893454 73.045922 0 0 -0.43879,-0.627814 z m 1.46857,2.221707 a 41.668798,40.893454 73.045922 0 1 0.26303,0.418615 41.668798,40.893454 73.045922 0 0 -0.26303,-0.418615 z m 1.42697,2.491204 a 41.668798,40.893454 73.045922 0 1 0.2621,0.522317 41.668798,40.893454 73.045922 0 0 -0.2621,-0.522317 z m 1.04998,2.153499 a 41.668798,40.893454 73.045922 0 1 0.32056,0.724356 41.668798,40.893454 73.045922 0 0 -0.32056,-0.724356 z m 0.96029,2.287393 a 41.668798,40.893454 73.045922 0 1 0.26523,0.688259 41.668798,40.893454 73.045922 0 0 -0.26523,-0.688259 z m 2.42145,9.472124 a 41.668798,40.893454 73.045922 0 1 0.1806,2.103266 41.668798,40.893454 73.045922 0 0 -0.1806,-2.103266 z m 0.35948,6.715752 a 41.668798,40.893454 73.045922 0 1 -0.13266,2.406903 41.668798,40.893454 73.045922 0 0 0.13266,-2.406903 z m -0.72179,6.802768 a 41.668798,40.893454 73.045922 0 1 -0.45284,2.279749 41.668798,40.893454 73.045922 0 0 0.45284,-2.279749 z m -1.97965,7.110493 a 41.668798,40.893454 73.045922 0 1 -0.52738,1.501966 41.668798,40.893454 73.045922 0 0 0.52738,-1.501966 z m -3.58258,7.368859 a 41.668798,40.893454 73.045922 0 1 -0.92889,1.291815 41.668798,40.893454 73.045922 0 0 0.92889,-1.291815 z m -3.9933,5.280297 a 41.668798,40.893454 73.045922 0 1 -1.59353,1.652734 41.668798,40.893454 73.045922 0 0 1.59353,-1.652734 z m -4.83282,4.607041 a 41.668798,40.893454 73.045922 0 1 -1.88233,1.458738 41.668798,40.893454 73.045922 0 0 1.88233,-1.458738 z m -5.71813,3.876292 a 41.668798,40.893454 73.045922 0 1 -1.80976,1.022169 41.668798,40.893454 73.045922 0 0 1.80976,-1.022169 z"
         inkscape:label="Yang_1" />
    </g>
    <g
       id="g60"
       style="fill:#2a7251;fill-opacity:1">
      <path
         id="path55"
         style="display:inline;fill:#2a7251;fill-opacity:1;fill-rule:evenodd;stroke-width:0.384296"
         d="M 130.18713,176.89304 A 41.668798,40.893454 73.045922 0 0 157.15232,125.1102 41.668798,40.893454 73.045922 0 0 105.88545,97.17735 41.668798,40.893454 73.045922 0 1 54.618417,69.243932 41.668798,40.893454 73.045922 0 1 73.453399,21.050474 83.12219,83.12219 0 0 0 26.438834,121.62238 a 83.12219,83.12219 0 0 0 98.675146,56.46132 41.668798,40.893454 73.045922 0 1 -0.28442,0.0386 41.668798,40.893454 73.045922 0 0 0.44886,-0.0768 83.12219,83.12219 0 0 1 -0.16438,0.0385 41.668798,40.893454 73.045922 0 0 0.49436,-0.0953 41.668798,40.893454 73.045922 0 0 1.63538,-0.33172 41.668798,40.893454 73.045922 0 0 0.68352,-0.15354 41.668798,40.893454 73.045922 0 0 2.25988,-0.61013 z m -7.09785,1.46736 a 41.668798,40.893454 73.045922 0 1 -0.58187,0.0709 41.668798,40.893454 73.045922 0 0 0.58187,-0.0709 z m -2.9125,0.23886 a 41.668798,40.893454 73.045922 0 1 -0.49571,0.0101 41.668798,40.893454 73.045922 0 0 0.49571,-0.0101 z m -2.34261,0.0257 a 41.668798,40.893454 73.045922 0 1 -0.77846,-0.0226 41.668798,40.893454 73.045922 0 0 0.77846,0.0226 z m -2.42601,-0.11452 a 41.668798,40.893454 73.045922 0 1 -0.73951,-0.0584 41.668798,40.893454 73.045922 0 0 0.73951,0.0584 z m -2.84946,-0.31179 a 41.668798,40.893454 73.045922 0 1 -0.21206,-0.0271 41.668798,40.893454 73.045922 0 0 0.21206,0.0271 z m -2.51578,-0.45352 a 41.668798,40.893454 73.045922 0 1 -0.67903,-0.15693 41.668798,40.893454 73.045922 0 0 0.67903,0.15693 z m -2.31643,-0.56913 a 41.668798,40.893454 73.045922 0 1 -0.74578,-0.2123 41.668798,40.893454 73.045922 0 0 0.74578,0.2123 z m -2.40048,-0.74177 a 41.668798,40.893454 73.045922 0 1 -0.61452,-0.20799 41.668798,40.893454 73.045922 0 0 0.61452,0.20799 z m -2.80094,-1.06367 a 41.668798,40.893454 73.045922 0 1 -0.34513,-0.15649 41.668798,40.893454 73.045922 0 0 0.34513,0.15649 z m -2.13929,-0.99197 a 41.668798,40.893454 73.045922 0 1 -0.676872,-0.34785 41.668798,40.893454 73.045922 0 0 0.676872,0.34785 z m -2.129896,-1.13893 a 41.668798,40.893454 73.045922 0 1 -0.67781,-0.3913 41.668798,40.893454 73.045922 0 0 0.67781,0.3913 z m -2.319273,-1.4248 a 41.668798,40.893454 73.045922 0 1 -0.352439,-0.22692 41.668798,40.893454 73.045922 0 0 0.352439,0.22692 z m -2.26195,-1.60238 a 41.668798,40.893454 73.045922 0 1 -0.514717,-0.40776 41.668798,40.893454 73.045922 0 0 0.514717,0.40776 z m -1.855262,-1.50653 a 41.668798,40.893454 73.045922 0 1 -0.603823,-0.52839 41.668798,40.893454 73.045922 0 0 0.603823,0.52839 z m -1.835111,-1.67277 a 41.668798,40.893454 73.045922 0 1 -0.52192,-0.5041 41.668798,40.893454 73.045922 0 0 0.52192,0.5041 z m -2.142633,-2.21083 a 41.668798,40.893454 73.045922 0 1 -0.173219,-0.20274 41.668798,40.893454 73.045922 0 0 0.173219,0.20274 z m -1.523814,-1.81509 a 41.668798,40.893454 73.045922 0 1 -0.465528,-0.60194 41.668798,40.893454 73.045922 0 0 0.465528,0.60194 z m -1.464974,-1.95742 a 41.668798,40.893454 73.045922 0 1 -0.438376,-0.62809 41.668798,40.893454 73.045922 0 0 0.438376,0.62809 z m -1.468593,-2.22171 a 41.668798,40.893454 73.045922 0 1 -0.263068,-0.41859 41.668798,40.893454 73.045922 0 0 0.263068,0.41859 z m -1.426957,-2.49119 a 41.668798,40.893454 73.045922 0 1 -0.262072,-0.52234 41.668798,40.893454 73.045922 0 0 0.262072,0.52234 z m -1.049992,-2.15351 a 41.668798,40.893454 73.045922 0 1 -0.320557,-0.72434 41.668798,40.893454 73.045922 0 0 0.320557,0.72434 z m -0.960259,-2.28738 a 41.668798,40.893454 73.045922 0 1 -0.265234,-0.68827 41.668798,40.893454 73.045922 0 0 0.265234,0.68827 z m -2.42147,-9.47212 a 41.668798,40.893454 73.045922 0 1 -0.180588,-2.10328 41.668798,40.893454 73.045922 0 0 0.180588,2.10328 z m -0.359469,-6.71577 a 41.668798,40.893454 73.045922 0 1 0.132654,-2.4069 41.668798,40.893454 73.045922 0 0 -0.132654,2.4069 z m 0.7218,-6.80278 a 41.668798,40.893454 73.045922 0 1 0.452836,-2.27974 41.668798,40.893454 73.045922 0 0 -0.452836,2.27974 z m 1.979645,-7.11048 a 41.668798,40.893454 73.045922 0 1 0.527375,-1.50195 41.668798,40.893454 73.045922 0 0 -0.527375,1.50195 z m 3.582577,-7.36886 a 41.668798,40.893454 73.045922 0 1 0.928888,-1.29182 41.668798,40.893454 73.045922 0 0 -0.928888,1.29182 z m 3.993292,-5.28031 a 41.668798,40.893454 73.045922 0 1 1.59353,-1.6527 41.668798,40.893454 73.045922 0 0 -1.59353,1.6527 z m 4.832804,-4.60703 a 41.668798,40.893454 73.045922 0 1 1.882347,-1.45873 41.668798,40.893454 73.045922 0 0 -1.882347,1.45873 z m 5.71814,-3.8763 a 41.668798,40.893454 73.045922 0 1 1.809759,-1.022163 41.668798,40.893454 73.045922 0 0 -1.809759,1.022163 z"
         inkscape:label="Ying_2" />
    </g>
    <path
       id="path53"
       style="display:inline;fill:#2a7251;fill-opacity:1;fill-rule:evenodd;stroke-width:0.36615"
       d="m 38.885864,-6.1223054 a 46.501085,46.501085 0 0 1 4.481823,40.6078934 87.807003,87.807003 0 0 1 27.041448,-18.369737 44.017275,43.198232 73.045922 0 1 0.0028,-0.0017 44.017275,43.198232 73.045922 0 1 2.730214,-1.39095 46.501085,46.501085 0 0 1 -34.256325,-20.8455024 z"
       inkscape:label="punta arriba" />
    <path
       id="path54"
       style="display:inline;fill:#2a7251;fill-opacity:1;fill-rule:evenodd;stroke-width:0.36615"
       d="m 183.17273,135.25846 a 46.501085,46.501085 0 0 1 -0.006,0.004 87.807003,87.807003 0 0 1 -0.001,0.002 46.501085,46.501085 0 0 1 0.007,-0.005 z m -19.98993,26.23107 a 87.807003,87.807003 0 0 1 -24.25113,15.45959 44.017275,43.198232 73.045922 0 1 -2.08421,1.06175 46.501085,46.501085 0 0 1 31.01034,20.87481 46.501085,46.501085 0 0 1 -4.675,-37.39615 z"
       inkscape:label="punta abajo" />
    <path
       id="path57"
       style="display:inline;fill:#468966;fill-opacity:1;fill-rule:evenodd;stroke-width:0.0895953"
       inkscape:label="Ojos_2"
       d="M 125.19061,70.360428 A 19.19805,19.562046 0 0 1 105.99256,89.922474 19.19805,19.562046 0 0 1 86.794512,70.360428 19.19805,19.562046 0 0 1 105.99256,50.798382 19.19805,19.562046 0 0 1 125.19061,70.360428 Z"
       transform="matrix(-1.089367,0.14581163,-0.14581163,-1.089367,237.08752,198.83084)" />
    <path
       id="path58"
       style="display:inline;fill:#2a7251;fill-opacity:1;fill-rule:evenodd;stroke-width:0.0895953"
       inkscape:label="Ojos_1"
       d="m 125.38415,142.63908 c 0.83355,10.77161 -8.7888,20.01978 -19.39159,20.01978 -10.602787,0 -19.198045,-8.75822 -19.198048,-19.56204 -2e-6,-10.80382 8.595257,-19.56205 19.198048,-19.56205 10.60279,0 18.58529,8.68486 19.39159,19.10431 z"
       sodipodi:nodetypes="sssss"
       transform="matrix(-1.089367,0.14581163,-0.14581163,-1.089367,237.08752,198.83084)" />
  </g>
</svg>
